<svg xmlns="http://www.w3.org/2000/svg" viewBox="0 0 1280 560" width="1280" height="560" role="img" aria-label="jam with a fly: you play a beat, a simulated fruit fly plays it back">
<style>
.hit{transform-box:fill-box;transform-origin:center;animation:pop 4.0s linear infinite}
@keyframes pop{0%{transform:scale(1.35)}6%{transform:scale(1)}100%{transform:scale(1)}}
.head{animation:sweep 4.0s linear infinite}
@keyframes sweep{from{transform:translateX(0)}to{transform:translateX(1136.0px)}}
@media (prefers-reduced-motion:reduce){.hit,.head{animation:none}}
</style>
<rect width="1280" height="560" rx="36" fill="#17133A"/>
<path d="M75.584 96.432Q75.584 91.728 78.608 88.704Q81.632 85.67999999999999 86.896 85.67999999999999Q92.496 85.67999999999999 95.24000000000001 88.648Q97.98400000000001 91.616 97.98400000000001 96.32Q97.98400000000001 101.024 95.24000000000001 103.88Q92.496 106.73599999999999 86.896 106.73599999999999Q81.408 106.73599999999999 78.49600000000001 103.88Q75.584 101.024 75.584 96.432ZM81.52 191.296Q76.032 191.296 72.056 187.93599999999998Q68.08 184.576 68.08 178.752Q68.08 173.152 71.21600000000001 170.184Q74.352 167.216 78.72 167.216Q81.968 167.216 84.152 168.224Q86.336 169.232 87.904 170.464Q90.368 172.256 91.544 172.368Q92.72 172.48 93.28 171.696Q94.4 170.016 91.03999999999999 167.328L84.32 162.064Q80.064 158.704 78.27199999999999 154.392Q76.48 150.07999999999998 76.48 142.912L76.592 119.28Q76.592 114.576 79.168 111.776Q81.744 108.976 86.784 108.976Q92.048 108.976 94.68 111.776Q97.312 114.576 97.312 119.168L97.2 173.152Q97.2 182.56 92.72 186.928Q88.24000000000001 191.296 81.52 191.296ZM120.16 168.0Q111.872 168.0 107.224 163.51999999999998Q102.57600000000001 159.04 102.57600000000001 150.976Q102.57600000000001 142.912 107.952 139.272Q113.328 135.632 121.72800000000001 135.632Q126.656 135.632 130.688 136.304Q134.72 136.976 137.96800000000002 138.208H138.304V136.528Q138.304 133.952 136.4 132.44Q134.496 130.928 131.584 131.04Q128.784 131.04 126.824 131.37599999999998Q124.864 131.712 121.952 132.496Q116.57600000000001 133.84 112.656 132.272Q108.736 130.704 107.28 126.112Q105.936 121.29599999999999 107.896 118.048Q109.856 114.8 113.888 113.008Q117.36 111.328 121.672 110.208Q125.98400000000001 109.088 131.024 109.088Q145.696 109.088 152.584 116.19999999999999Q159.472 123.312 159.472 140.0V157.36Q159.472 161.952 156.67200000000003 164.976Q153.872 168.0 148.94400000000002 168.0Q143.568 168.0 140.936 164.976Q138.304 161.952 138.304 157.584V155.008H136.064Q136.064 157.92 135.0 160.944Q133.936 163.968 130.632 165.98399999999998Q127.328 168.0 120.16 168.0ZM121.28 143.472Q121.28 145.376 122.68 146.16Q124.08 146.944 128.784 146.944Q133.04000000000002 146.944 134.72000000000003 146.16Q136.4 145.376 136.4 143.472Q136.4 141.68 134.72000000000003 140.952Q133.04000000000002 140.224 128.784 140.224Q124.08 140.224 122.68 140.952Q121.28 141.68 121.28 143.472ZM175.82399999999998 168.0Q170.784 168.0 167.81599999999997 165.03199999999998Q164.84799999999998 162.064 164.84799999999998 157.696V120.624Q164.84799999999998 115.92 167.704 112.672Q170.56 109.424 175.82399999999998 109.424Q180.976 109.424 183.552 112.672Q186.128 115.92 186.128 120.848V126.44800000000001H188.144Q188.144 116.928 192.176 113.176Q196.208 109.424 202.144 109.424Q209.76 109.424 213.344 114.128Q216.928 118.832 216.928 126.44800000000001H218.944Q218.944 120.064 221.072 116.368Q223.2 112.672 226.504 111.048Q229.808 109.424 233.392 109.424Q240.672 109.424 244.088 112.896Q247.504 116.368 248.512 122.192Q249.51999999999998 128.016 249.51999999999998 135.296V157.696Q249.51999999999998 162.064 246.552 165.03199999999998Q243.584 168.0 238.656 168.0Q233.728 168.0 230.704 165.03199999999998Q227.68 162.064 227.68 157.696V137.872Q227.68 133.84 226.672 131.60000000000002Q225.664 129.36 222.64 129.36Q219.392 129.36 218.44 131.824Q217.488 134.288 217.488 138.096V157.696Q217.488 162.064 214.688 165.03199999999998Q211.88799999999998 168.0 206.95999999999998 168.0Q201.92 168.0 198.952 165.03199999999998Q195.98399999999998 162.064 195.98399999999998 157.696V137.872Q195.98399999999998 133.84 194.976 131.60000000000002Q193.968 129.36 191.05599999999998 129.36Q187.808 129.36 186.968 131.824Q186.128 134.288 186.128 138.096V157.696Q186.128 162.064 183.44 165.03199999999998Q180.75199999999998 168.0 175.82399999999998 168.0ZM301.37600000000003 168.0Q294.88 168.0 290.79200000000003 163.744Q286.704 159.488 283.344 149.744L274.832 124.432Q273.37600000000003 120.176 274.72 115.80799999999999Q276.064 111.44 280.88 109.872Q285.36 108.304 289.05600000000004 110.096Q292.752 111.888 294.208 116.256L303.392 143.696Q304.96000000000004 148.512 306.64000000000004 150.136Q308.32000000000005 151.76 311.12 150.864Q313.47200000000004 150.07999999999998 314.088 147.44799999999998Q314.704 144.816 312.464 138.32L307.872 124.432Q306.416 120.064 307.81600000000003 115.752Q309.216 111.44 314.03200000000004 109.872Q318.512 108.304 322.20799999999997 110.096Q325.904 111.888 327.36 116.256L336.76800000000003 144.928Q337.664 147.504 339.568 149.632Q341.47200000000004 151.76 344.49600000000004 150.864Q346.848 150.07999999999998 347.576 147.728Q348.30400000000003 145.376 347.29600000000005 142.24Q345.952 137.984 344.328 135.51999999999998Q342.704 133.05599999999998 341.192 131.264Q339.68 129.472 338.728 127.456Q337.776 125.44 337.552 121.96799999999999Q337.32800000000003 118.384 339.064 115.64Q340.8 112.896 343.76800000000003 111.328Q346.736 109.75999999999999 350.32000000000005 109.75999999999999Q355.808 109.75999999999999 359.224 113.39999999999999Q362.64 117.03999999999999 362.64 121.96799999999999Q362.64 123.75999999999999 362.08000000000004 126.672Q361.52000000000004 129.584 360.624 132.048L355.92 144.256Q354.464 148.288 352.616 152.488Q350.76800000000003 156.688 348.36 160.16Q345.952 163.632 342.81600000000003 165.816Q339.68 168.0 335.536 168.0Q328.368 168.0 324.05600000000004 164.304Q319.744 160.608 317.28000000000003 152.096H316.16Q314.704 159.04 311.34400000000005 163.51999999999998Q307.98400000000004 168.0 301.37600000000003 168.0ZM366.78400000000005 96.432Q366.78400000000005 91.616 369.75200000000007 88.648Q372.72 85.67999999999999 377.98400000000004 85.67999999999999Q383.584 85.67999999999999 386.328 88.592Q389.072 91.504 389.072 96.32Q389.072 101.024 386.328 103.88Q383.584 106.73599999999999 377.98400000000004 106.73599999999999Q372.49600000000004 106.73599999999999 369.64000000000004 103.88Q366.78400000000005 101.024 366.78400000000005 96.432ZM377.98400000000004 168.0Q372.72 168.0 370.144 165.088Q367.56800000000004 162.176 367.56800000000004 157.808V119.50399999999999Q367.56800000000004 114.688 370.144 111.888Q372.72 109.088 377.98400000000004 109.088Q383.24800000000005 109.088 385.88000000000005 111.888Q388.51200000000006 114.688 388.51200000000006 119.28V157.808Q388.51200000000006 162.176 385.76800000000003 165.088Q383.024 168.0 377.98400000000004 168.0ZM427.15200000000004 168.336Q421.216 168.336 416.456 165.64800000000002Q411.696 162.96 409.00800000000004 157.976Q406.32000000000005 152.992 406.32000000000005 146.272V126.56L402.17600000000004 127.12Q398.81600000000003 127.568 396.24 124.768Q393.66400000000004 121.96799999999999 393.66400000000004 117.71199999999999Q393.66400000000004 113.45599999999999 396.24 110.71199999999999Q398.81600000000003 107.96799999999999 402.17600000000004 108.416L406.32000000000005 108.976L406.208 101.36Q406.096 96.88 408.784 94.24799999999999Q411.47200000000004 91.616 416.624 91.616Q421.776 91.616 424.576 94.24799999999999Q427.37600000000003 96.88 427.15200000000004 101.36L426.928 108.976L432.86400000000003 108.19200000000001Q438.91200000000003 107.29599999999999 442.048 110.37599999999999Q445.184 113.45599999999999 445.184 117.71199999999999Q445.184 121.96799999999999 442.10400000000004 125.04799999999999Q439.024 128.128 433.20000000000005 127.344L426.928 126.56V143.248Q426.928 144.704 427.93600000000004 145.88Q428.944 147.056 430.40000000000003 146.608Q432.08000000000004 146.16 433.928 144.704Q435.776 143.248 438.68800000000005 143.248Q443.05600000000004 143.248 445.408 146.38400000000001Q447.76000000000005 149.52 447.76000000000005 154.112Q447.76000000000005 157.696 445.24 161.0Q442.72 164.304 438.12800000000004 166.32Q433.536 168.336 427.15200000000004 168.336ZM463.44 168.0Q458.512 168.0 455.656 165.03199999999998Q452.8 162.064 452.8 157.696V92.848Q452.8 88.14399999999999 455.656 84.89599999999999Q458.512 81.648 463.776 81.648Q468.928 81.648 471.56 84.89599999999999Q474.192 88.14399999999999 474.192 92.96V126.44800000000001H476.208Q476.208 120.064 478.504 116.368Q480.8 112.672 484.44000000000005 111.048Q488.08000000000004 109.424 491.88800000000003 109.424Q498.608 109.424 502.13599999999997 112.72800000000001Q505.664 116.032 506.952 121.52000000000001Q508.24 127.00800000000001 508.24 133.504V157.696Q508.24 162.288 505.27200000000005 165.144Q502.30400000000003 168.0 497.37600000000003 168.0Q492.336 168.0 489.424 165.144Q486.512 162.288 486.512 157.696V137.872Q486.512 133.84 484.944 131.60000000000002Q483.37600000000003 129.36 480.35200000000003 129.36Q477.32800000000003 129.36 475.76 131.824Q474.192 134.288 474.192 138.096V157.696Q474.192 162.064 471.336 165.03199999999998Q468.48 168.0 463.44 168.0ZM550.8000000000001 168.0Q542.5120000000001 168.0 537.864 163.51999999999998Q533.216 159.04 533.216 150.976Q533.216 142.912 538.5920000000001 139.272Q543.9680000000001 135.632 552.368 135.632Q557.296 135.632 561.328 136.304Q565.36 136.976 568.6080000000001 138.208H568.9440000000001V136.528Q568.9440000000001 133.952 567.0400000000001 132.44Q565.1360000000001 130.928 562.224 131.04Q559.4240000000001 131.04 557.464 131.37599999999998Q555.504 131.712 552.5920000000001 132.496Q547.216 133.84 543.296 132.272Q539.3760000000001 130.704 537.9200000000001 126.112Q536.576 121.29599999999999 538.5360000000001 118.048Q540.4960000000001 114.8 544.528 113.008Q548.0 111.328 552.312 110.208Q556.624 109.088 561.6640000000001 109.088Q576.336 109.088 583.224 116.19999999999999Q590.1120000000001 123.312 590.1120000000001 140.0V157.36Q590.1120000000001 161.952 587.3120000000001 164.976Q584.5120000000001 168.0 579.5840000000001 168.0Q574.2080000000001 168.0 571.576 164.976Q568.9440000000001 161.952 568.9440000000001 157.584V155.008H566.7040000000001Q566.7040000000001 157.92 565.6400000000001 160.944Q564.576 163.968 561.272 165.98399999999998Q557.9680000000001 168.0 550.8000000000001 168.0ZM551.9200000000001 143.472Q551.9200000000001 145.376 553.32 146.16Q554.72 146.944 559.4240000000001 146.944Q563.6800000000001 146.944 565.3600000000001 146.16Q567.0400000000001 145.376 567.0400000000001 143.472Q567.0400000000001 141.68 565.3600000000001 140.952Q563.6800000000001 140.224 559.4240000000001 140.224Q554.72 140.224 553.32 140.952Q551.9200000000001 141.68 551.9200000000001 143.472ZM634.464 168.0Q629.76 168.0 626.7919999999999 165.03199999999998Q623.824 162.064 623.824 157.584V132.608Q620.912 133.28 618.56 131.824Q616.208 130.368 614.808 127.45599999999999Q613.408 124.544 613.408 121.072Q613.408 117.6 614.864 114.632Q616.32 111.664 618.7280000000001 110.096Q621.136 108.52799999999999 624.048 109.424Q624.608 101.136 626.736 94.696Q628.864 88.256 633.288 84.56Q637.712 80.864 644.88 80.864Q651.04 80.864 654.736 83.384Q658.432 85.904 659.944 89.6Q661.456 93.29599999999999 660.896 97.104Q660.336 100.8 657.8720000000001 103.544Q655.408 106.288 650.592 106.288Q647.232 106.288 644.992 104.94399999999999Q642.752 103.6 641.24 101.63999999999999Q639.728 99.67999999999999 638.608 97.888Q635.808 93.408 632.896 94.864Q631.44 95.648 631.328 97.384Q631.216 99.12 632.448 101.36L634.912 105.616Q636.816 108.752 638.944 109.70400000000001Q641.072 110.656 644.32 110.208L649.696 109.424Q654.848 108.64 658.096 112.22399999999999Q661.344 115.80799999999999 661.344 121.072Q661.344 126.56 658.04 129.864Q654.736 133.168 649.92 132.608L645.216 132.048V157.584Q645.216 162.064 642.3040000000001 165.03199999999998Q639.392 168.0 634.464 168.0ZM675.904 168.0Q670.4159999999999 168.0 667.672 165.088Q664.928 162.176 664.928 157.808V92.848Q664.928 88.032 667.672 84.84Q670.4159999999999 81.648 675.904 81.648Q680.832 81.648 683.52 84.84Q686.208 88.032 686.208 92.624V157.808Q686.208 162.176 683.52 165.088Q680.832 168.0 675.904 168.0ZM713.536 191.072Q706.032 191.072 701.2719999999999 188.608Q696.512 186.144 693.824 182.112Q691.584 178.64 691.304 174.832Q691.024 171.024 692.704 167.72Q694.384 164.416 697.744 162.624Q701.216 160.72 704.688 161.112Q708.16 161.504 711.072 163.688Q713.984 165.872 715.552 169.344Q717.232 173.04 718.968 174.776Q720.704 176.512 723.504 175.504Q726.192 174.608 725.4639999999999 170.57600000000002Q724.736 166.544 722.496 161.056H718.352Q713.536 161.056 708.72 157.584Q703.904 154.112 700.656 146.608L691.472 125.328Q689.3439999999999 120.288 691.0799999999999 116.032Q692.816 111.776 697.408 109.872Q701.664 107.96799999999999 705.808 109.648Q709.952 111.328 712.304 116.816L720.816 136.64Q722.944 141.456 725.4639999999999 143.584Q727.984 145.712 730.784 144.256Q733.248 142.912 733.472 140.50400000000002Q733.696 138.096 731.12 134.624Q730.0 133.05599999999998 728.488 131.152Q726.976 129.248 725.8 126.728Q724.624 124.208 724.624 121.072Q724.624 115.80799999999999 728.2080000000001 112.392Q731.792 108.976 737.616 108.976Q742.88 108.976 746.072 112.336Q749.264 115.696 749.264 121.072Q749.264 124.88 748.3679999999999 129.47199999999998Q747.472 134.064 746.352 137.984L738.288 167.44Q736.496 174.048 733.5840000000001 179.424Q730.672 184.8 725.856 187.936Q721.04 191.072 713.536 191.072Z" fill="#F4F2FF" />
<g transform="translate(1150 112) scale(1.9)">
  <ellipse cx="-14" cy="-10" rx="20" ry="9" fill="#7184FF" opacity=".28" transform="rotate(-28 -14 -10)"/>
  <ellipse cx="14" cy="-10" rx="20" ry="9" fill="#7184FF" opacity=".28" transform="rotate(28 14 -10)"/>
  <path d="M-6 6 L-16 16 M6 6 L16 16 M-7 0 L-19 2 M7 0 L19 2 M-6 -4 L-15 -10 M6 -4 L15 -10" stroke="#F4F2FF" stroke-width="2.4" stroke-linecap="round"/>
  <ellipse cx="0" cy="6" rx="8" ry="13" fill="#F4F2FF"/>
  <circle cx="0" cy="-10" r="8" fill="#F4F2FF"/>
  <circle cx="-5" cy="-12" r="4.2" fill="#FF5C97"/>
  <circle cx="5" cy="-12" r="4.2" fill="#FF5C97"/>
</g>
<path d="M76.63 274.18Q74.62 274.18 73.345 273.52Q72.07 272.86 71.35 271.78Q70.75 270.85 70.675 269.83000000000004Q70.6 268.81 71.05 267.925Q71.5 267.04 72.4 266.56Q73.33 266.05 74.25999999999999 266.155Q75.19 266.26 75.97 266.845Q76.75 267.43 77.17 268.36Q77.62 269.35 78.08500000000001 269.815Q78.55 270.28 79.3 270.01Q80.02 269.77 79.82499999999999 268.69Q79.63 267.61 79.03 266.14H77.92Q76.63 266.14 75.34 265.21Q74.05 264.28 73.18 262.27L70.72 256.57Q70.15 255.22 70.61500000000001 254.07999999999998Q71.08 252.94 72.31 252.43Q73.45 251.92000000000002 74.56 252.37Q75.67 252.82 76.3 254.29L78.58 259.6Q79.15 260.89 79.825 261.46Q80.5 262.03 81.25 261.64Q81.91 261.28 81.97 260.635Q82.03 259.99 81.34 259.06Q81.03999999999999 258.64 80.63499999999999 258.13Q80.23 257.62 79.91499999999999 256.945Q79.6 256.27 79.6 255.43Q79.6 254.02 80.56 253.10500000000002Q81.52 252.19 83.08 252.19Q84.49 252.19 85.345 253.09Q86.2 253.99 86.2 255.43Q86.2 256.45 85.96000000000001 257.68Q85.72 258.91 85.42 259.96L83.26 267.85Q82.78 269.62 82.0 271.06Q81.22 272.5 79.93 273.34000000000003Q78.64 274.18 76.63 274.18ZM94.99000000000001 268.06Q91.48 268.06 89.39500000000001 265.975Q87.31 263.89 87.31 260.08Q87.31 257.74 88.27000000000001 255.97Q89.23 254.2 90.95500000000001 253.195Q92.68 252.19 94.99000000000001 252.19Q97.57000000000001 252.19 99.28 253.195Q100.99000000000001 254.2 101.845 255.97Q102.7 257.74 102.7 260.08Q102.7 263.89 100.795 265.975Q98.89 268.06 94.99000000000001 268.06ZM90.88000000000001 259.57Q90.88000000000001 260.5 91.81 260.875Q92.74000000000001 261.25 94.99000000000001 261.25Q97.24000000000001 261.25 98.17000000000002 260.875Q99.10000000000001 260.5 99.10000000000001 259.57Q99.10000000000001 258.67 98.17000000000002 258.31Q97.24000000000001 257.95 94.99000000000001 257.95Q92.74000000000001 257.95 91.81 258.31Q90.88000000000001 258.67 90.88000000000001 259.57ZM108.97 268.0Q106.87 268.0 105.55000000000001 266.40999999999997Q104.23 264.82 104.2 261.94L104.17 255.01Q104.17 253.72 104.965 252.985Q105.76 252.25 107.14 252.25Q108.46 252.25 109.27 252.985Q110.08 253.72 110.08 255.01V261.28Q110.08 263.53 111.85 263.53Q112.72 263.53 113.02 262.885Q113.32 262.24 113.32 261.22V255.01Q113.32 253.84 114.13 253.04500000000002Q114.94 252.25 116.23 252.25Q117.58 252.25 118.315 253.04500000000002Q119.05 253.84 119.05 255.01V264.85Q119.05 266.29 118.405 267.145Q117.75999999999999 268.0 116.32 268.0Q114.91 268.0 114.115 267.145Q113.32 266.29 113.32 264.85V264.34H112.78Q112.78 266.08 111.745 267.03999999999996Q110.71 268.0 108.97 268.0Z" fill="#FF5C97" />
<path d="M687.7945161290323 268.0Q686.5345161290323 268.0 685.7395161290324 267.20500000000004Q684.9445161290323 266.41 684.9445161290323 265.21V258.52Q684.1645161290323 258.7 683.5345161290323 258.31Q682.9045161290323 257.92 682.5295161290323 257.14Q682.1545161290323 256.36 682.1545161290323 255.43Q682.1545161290323 254.5 682.5445161290323 253.70499999999998Q682.9345161290323 252.91 683.5795161290323 252.49Q684.2245161290323 252.07 685.0045161290324 252.31Q685.1545161290323 250.09 685.7245161290323 248.365Q686.2945161290323 246.64 687.4795161290324 245.64999999999998Q688.6645161290323 244.66 690.5845161290323 244.66Q692.2345161290323 244.66 693.2245161290323 245.33499999999998Q694.2145161290323 246.01 694.6195161290323 247.0Q695.0245161290323 247.99 694.8745161290323 249.01Q694.7245161290323 250.0 694.0645161290323 250.735Q693.4045161290323 251.47 692.1145161290323 251.47Q691.2145161290323 251.47 690.6145161290324 251.11Q690.0145161290324 250.75 689.6095161290323 250.225Q689.2045161290323 249.7 688.9045161290323 249.22Q688.1545161290323 248.02 687.3745161290323 248.41Q686.9845161290323 248.62 686.9545161290323 249.085Q686.9245161290323 249.55 687.2545161290324 250.15L687.9145161290323 251.29Q688.4245161290323 252.13 688.9945161290323 252.385Q689.5645161290323 252.64 690.4345161290323 252.52L691.8745161290323 252.31Q693.2545161290324 252.1 694.1245161290324 253.06Q694.9945161290323 254.02 694.9945161290323 255.43Q694.9945161290323 256.9 694.1095161290323 257.78499999999997Q693.2245161290323 258.67 691.9345161290323 258.52L690.6745161290323 258.37V265.21Q690.6745161290323 266.41 689.8945161290324 267.20500000000004Q689.1145161290323 268.0 687.7945161290323 268.0ZM698.8945161290324 268.0Q697.4245161290323 268.0 696.6895161290324 267.22Q695.9545161290324 266.44 695.9545161290324 265.27V247.87Q695.9545161290324 246.58 696.6895161290324 245.72500000000002Q697.4245161290323 244.87 698.8945161290324 244.87Q700.2145161290324 244.87 700.9345161290323 245.72500000000002Q701.6545161290323 246.58 701.6545161290323 247.81V265.27Q701.6545161290323 266.44 700.9345161290323 267.22Q700.2145161290324 268.0 698.8945161290324 268.0ZM708.9745161290324 274.18Q706.9645161290324 274.18 705.6895161290324 273.52Q704.4145161290324 272.86 703.6945161290324 271.78Q703.0945161290324 270.85 703.0195161290324 269.83000000000004Q702.9445161290324 268.81 703.3945161290324 267.925Q703.8445161290324 267.04 704.7445161290324 266.56Q705.6745161290324 266.05 706.6045161290324 266.155Q707.5345161290325 266.26 708.3145161290324 266.845Q709.0945161290324 267.43 709.5145161290324 268.36Q709.9645161290324 269.35 710.4295161290324 269.815Q710.8945161290324 270.28 711.6445161290324 270.01Q712.3645161290324 269.77 712.1695161290324 268.69Q711.9745161290324 267.61 711.3745161290324 266.14H710.2645161290324Q708.9745161290324 266.14 707.6845161290323 265.21Q706.3945161290324 264.28 705.5245161290323 262.27L703.0645161290324 256.57Q702.4945161290324 255.22 702.9595161290324 254.07999999999998Q703.4245161290324 252.94 704.6545161290323 252.43Q705.7945161290324 251.92000000000002 706.9045161290323 252.37Q708.0145161290324 252.82 708.6445161290324 254.29L710.9245161290324 259.6Q711.4945161290324 260.89 712.1695161290324 261.46Q712.8445161290324 262.03 713.5945161290324 261.64Q714.2545161290324 261.28 714.3145161290324 260.635Q714.3745161290324 259.99 713.6845161290324 259.06Q713.3845161290324 258.64 712.9795161290324 258.13Q712.5745161290324 257.62 712.2595161290324 256.945Q711.9445161290324 256.27 711.9445161290324 255.43Q711.9445161290324 254.02 712.9045161290323 253.10500000000002Q713.8645161290324 252.19 715.4245161290324 252.19Q716.8345161290324 252.19 717.6895161290324 253.09Q718.5445161290324 253.99 718.5445161290324 255.43Q718.5445161290324 256.45 718.3045161290324 257.68Q718.0645161290324 258.91 717.7645161290324 259.96L715.6045161290324 267.85Q715.1245161290324 269.62 714.3445161290324 271.06Q713.5645161290324 272.5 712.2745161290325 273.34000000000003Q710.9845161290324 274.18 708.9745161290324 274.18Z" fill="#7184FF" />
<rect class="hit" style="animation-delay:-4.000s" x="60.0" y="306.0" width="24" height="24" rx="8" fill="#FF5C97"/>
<circle cx="104.1" cy="318" r="4" fill="#342F68"/>
<circle cx="136.3" cy="318" r="4" fill="#342F68"/>
<circle cx="168.4" cy="318" r="4" fill="#342F68"/>
<circle cx="214.5" cy="318" r="4" fill="#342F68"/>
<circle cx="246.6" cy="318" r="4" fill="#342F68"/>
<rect class="hit" style="animation-delay:-3.250s" x="266.8" y="306.0" width="24" height="24" rx="8" fill="#FF5C97"/>
<circle cx="310.9" cy="318" r="4" fill="#342F68"/>
<rect class="hit" style="animation-delay:-3.000s" x="345.0" y="306.0" width="24" height="24" rx="8" fill="#FF5C97"/>
<circle cx="389.2" cy="318" r="4" fill="#342F68"/>
<circle cx="421.3" cy="318" r="4" fill="#342F68"/>
<rect class="hit" style="animation-delay:-2.625s" x="441.4" y="306.0" width="24" height="24" rx="8" fill="#FF5C97"/>
<circle cx="499.5" cy="318" r="4" fill="#342F68"/>
<circle cx="531.7" cy="318" r="4" fill="#342F68"/>
<circle cx="563.8" cy="318" r="4" fill="#342F68"/>
<circle cx="595.9" cy="318" r="4" fill="#342F68"/>
<rect class="hit" style="animation-delay:-2.000s" x="672.1" y="306.0" width="24" height="24" rx="8" fill="#7184FF"/>
<circle cx="716.2" cy="318" r="4" fill="#342F68"/>
<circle cx="748.3" cy="318" r="4" fill="#342F68"/>
<circle cx="780.5" cy="318" r="4" fill="#342F68"/>
<circle cx="826.6" cy="318" r="4" fill="#342F68"/>
<circle cx="858.7" cy="318" r="4" fill="#342F68"/>
<rect class="hit" style="animation-delay:-1.250s" x="878.8" y="306.0" width="24" height="24" rx="8" fill="#7184FF"/>
<circle cx="923.0" cy="318" r="4" fill="#342F68"/>
<rect class="hit" style="animation-delay:-1.000s" x="957.1" y="306.0" width="24" height="24" rx="8" fill="#7184FF"/>
<circle cx="1001.2" cy="318" r="4" fill="#342F68"/>
<rect class="hit" style="animation-delay:-0.750s" x="1021.4" y="306.0" width="24" height="24" rx="8" fill="#7184FF"/>
<circle cx="1065.5" cy="318" r="4" fill="#342F68"/>
<circle cx="1111.6" cy="318" r="4" fill="#342F68"/>
<circle cx="1143.7" cy="318" r="4" fill="#342F68"/>
<circle cx="1175.9" cy="318" r="4" fill="#342F68"/>
<circle cx="1208.0" cy="318" r="4" fill="#342F68"/>
<circle cx="72.0" cy="382" r="4" fill="#342F68"/>
<circle cx="104.1" cy="382" r="4" fill="#342F68"/>
<circle cx="136.3" cy="382" r="4" fill="#342F68"/>
<circle cx="168.4" cy="382" r="4" fill="#342F68"/>
<rect class="hit" style="animation-delay:-3.500s" x="202.5" y="370.0" width="24" height="24" rx="8" fill="#FF5C97"/>
<circle cx="246.6" cy="382" r="4" fill="#342F68"/>
<circle cx="278.8" cy="382" r="4" fill="#342F68"/>
<circle cx="310.9" cy="382" r="4" fill="#342F68"/>
<circle cx="357.0" cy="382" r="4" fill="#342F68"/>
<circle cx="389.2" cy="382" r="4" fill="#342F68"/>
<circle cx="421.3" cy="382" r="4" fill="#342F68"/>
<circle cx="453.4" cy="382" r="4" fill="#342F68"/>
<rect class="hit" style="animation-delay:-2.500s" x="487.5" y="370.0" width="24" height="24" rx="8" fill="#FF5C97"/>
<circle cx="531.7" cy="382" r="4" fill="#342F68"/>
<circle cx="563.8" cy="382" r="4" fill="#342F68"/>
<circle cx="595.9" cy="382" r="4" fill="#342F68"/>
<circle cx="684.1" cy="382" r="4" fill="#342F68"/>
<circle cx="716.2" cy="382" r="4" fill="#342F68"/>
<circle cx="748.3" cy="382" r="4" fill="#342F68"/>
<circle cx="780.5" cy="382" r="4" fill="#342F68"/>
<rect class="hit" style="animation-delay:-1.500s" x="814.6" y="370.0" width="24" height="24" rx="8" fill="#7184FF"/>
<circle cx="858.7" cy="382" r="4" fill="#342F68"/>
<circle cx="890.8" cy="382" r="4" fill="#342F68"/>
<circle cx="923.0" cy="382" r="4" fill="#342F68"/>
<circle cx="969.1" cy="382" r="4" fill="#342F68"/>
<circle cx="1001.2" cy="382" r="4" fill="#342F68"/>
<circle cx="1033.4" cy="382" r="4" fill="#342F68"/>
<circle cx="1065.5" cy="382" r="4" fill="#342F68"/>
<rect class="hit" style="animation-delay:-0.500s" x="1099.6" y="370.0" width="24" height="24" rx="8" fill="#7184FF"/>
<rect class="hit" style="animation-delay:-0.375s" x="1131.7" y="370.0" width="24" height="24" rx="8" fill="#7184FF"/>
<circle cx="1175.9" cy="382" r="4" fill="#342F68"/>
<circle cx="1208.0" cy="382" r="4" fill="#342F68"/>
<rect class="hit" style="animation-delay:-4.000s" x="60.0" y="434.0" width="24" height="24" rx="8" fill="#FF5C97"/>
<circle cx="104.1" cy="446" r="4" fill="#342F68"/>
<rect class="hit" style="animation-delay:-3.750s" x="124.3" y="434.0" width="24" height="24" rx="8" fill="#FF5C97"/>
<circle cx="168.4" cy="446" r="4" fill="#342F68"/>
<rect class="hit" style="animation-delay:-3.500s" x="202.5" y="434.0" width="24" height="24" rx="8" fill="#FF5C97"/>
<circle cx="246.6" cy="446" r="4" fill="#342F68"/>
<rect class="hit" style="animation-delay:-3.250s" x="266.8" y="434.0" width="24" height="24" rx="8" fill="#FF5C97"/>
<circle cx="310.9" cy="446" r="4" fill="#342F68"/>
<rect class="hit" style="animation-delay:-3.000s" x="345.0" y="434.0" width="24" height="24" rx="8" fill="#FF5C97"/>
<circle cx="389.2" cy="446" r="4" fill="#342F68"/>
<rect class="hit" style="animation-delay:-2.750s" x="409.3" y="434.0" width="24" height="24" rx="8" fill="#FF5C97"/>
<circle cx="453.4" cy="446" r="4" fill="#342F68"/>
<rect class="hit" style="animation-delay:-2.500s" x="487.5" y="434.0" width="24" height="24" rx="8" fill="#FF5C97"/>
<circle cx="531.7" cy="446" r="4" fill="#342F68"/>
<rect class="hit" style="animation-delay:-2.250s" x="551.8" y="434.0" width="24" height="24" rx="8" fill="#FF5C97"/>
<circle cx="595.9" cy="446" r="4" fill="#342F68"/>
<rect class="hit" style="animation-delay:-2.000s" x="672.1" y="434.0" width="24" height="24" rx="8" fill="#7184FF"/>
<circle cx="716.2" cy="446" r="4" fill="#342F68"/>
<rect class="hit" style="animation-delay:-1.750s" x="736.3" y="434.0" width="24" height="24" rx="8" fill="#7184FF"/>
<circle cx="780.5" cy="446" r="4" fill="#342F68"/>
<rect class="hit" style="animation-delay:-1.500s" x="814.6" y="434.0" width="24" height="24" rx="8" fill="#7184FF"/>
<circle cx="858.7" cy="446" r="4" fill="#342F68"/>
<rect class="hit" style="animation-delay:-1.250s" x="878.8" y="434.0" width="24" height="24" rx="8" fill="#7184FF"/>
<circle cx="923.0" cy="446" r="4" fill="#342F68"/>
<rect class="hit" style="animation-delay:-1.000s" x="957.1" y="434.0" width="24" height="24" rx="8" fill="#7184FF"/>
<circle cx="1001.2" cy="446" r="4" fill="#342F68"/>
<rect class="hit" style="animation-delay:-0.750s" x="1021.4" y="434.0" width="24" height="24" rx="8" fill="#7184FF"/>
<circle cx="1065.5" cy="446" r="4" fill="#342F68"/>
<rect class="hit" style="animation-delay:-0.500s" x="1099.6" y="434.0" width="24" height="24" rx="8" fill="#7184FF"/>
<circle cx="1143.7" cy="446" r="4" fill="#342F68"/>
<circle cx="1175.9" cy="446" r="4" fill="#342F68"/>
<circle cx="1208.0" cy="446" r="4" fill="#342F68"/>
<g class="head"><rect x="70.0" y="284" width="4" height="196" rx="2" fill="#FFD04D"/><circle cx="72.0" cy="278" r="6" fill="#FFD04D"/></g>
</svg>